<svg width="49" height="49" viewBox="3 3 43 43" fill="none" xmlns="http://www.w3.org/2000/svg">
<path d="M40.1579 22.5343C40.1004 22.3406 40.0055 22.1607 39.8761 22.003C39.3869 21.0865 38.9811 20.3676 38.7353 19.9396C38.8609 18.168 39.0117 12.3921 36.097 8.61528C33.4295 5.15772 27.9193 4.98316 27.2686 4.9755C26.8681 4.95023 26.4654 4.93645 26.0642 4.92497V4.9043C26.0642 4.05905 25.3782 3.37305 24.533 3.37305C23.6877 3.37305 23.0017 4.05905 23.0017 4.9043V4.93339C22.5891 4.94564 22.1856 4.96019 21.8012 4.9755C21.5631 4.98392 15.9519 5.2182 13.0463 8.54255C10.5986 11.344 10.3773 17.7905 10.3689 19.7873C10.3544 19.8386 10.3414 19.8906 10.3322 19.9427C10.0879 20.3676 9.68904 21.0766 9.2044 21.9831C9.06276 22.1508 8.96093 22.3445 8.90198 22.5535C6.88379 26.3969 3.78837 32.9905 3.8634 37.1593C3.9836 43.7406 19.6644 44.9534 24.4664 45.1685C24.4893 45.1716 24.5123 45.1716 24.5353 45.1716C24.5582 45.1716 24.5812 45.1716 24.6042 45.1701C24.7152 45.1647 29.5157 44.9442 34.3567 44.0109C41.5995 42.6144 45.149 40.3742 45.2071 37.1601C45.2829 32.9844 42.176 26.374 40.1579 22.5343ZM34.4884 26.7966H27.0059C26.4111 26.1389 26.0665 25.3312 26.0665 24.4997C26.0665 22.5198 28.0204 20.6716 30.6603 20.6716C33.3009 20.6716 35.254 22.5198 35.254 24.4997C35.254 25.3557 34.9868 26.2315 34.4884 26.7966ZM26.0642 7.98517C26.4287 7.99666 26.7778 8.01273 27.1162 8.03417C27.1484 8.0357 27.1813 8.03723 27.2142 8.03723C27.2601 8.03723 31.834 8.10308 33.6738 10.4865C35.0833 12.3133 35.5488 14.9133 35.6782 16.9537C35.071 16.6038 34.4348 16.3282 33.7649 16.1261C33.3737 15.9967 32.8844 15.8566 32.1915 15.6958L33.7228 14.5473C33.7503 13.6317 33.7434 12.9977 33.1064 12.2551C31.3402 10.194 28.0135 9.69634 26.0642 9.58763V7.98517ZM23.7674 10.7185C23.7674 10.2958 24.1096 9.95283 24.533 9.95283C24.9564 9.95283 25.2986 10.2958 25.2986 10.7185V16.4606C25.2986 16.8833 24.9564 17.2263 24.533 17.2263C24.1096 17.2263 23.7674 16.8833 23.7674 16.4606V10.7185ZM23.004 24.4997C23.004 25.3312 22.6603 26.1389 22.0654 26.7966H14.5821C13.9873 26.1389 13.8165 25.3312 13.8165 24.4997C13.8165 22.5198 15.7704 20.6716 18.4103 20.6716C21.0509 20.6716 23.004 22.5198 23.004 24.4997ZM15.3524 10.5577C17.0344 8.63289 20.6581 8.0847 21.9168 8.0357C22.2997 8.02039 22.6564 8.00814 23.0017 7.99819V9.60217C21.067 9.70783 17.8414 10.2032 16.1134 12.2497C15.4925 12.9855 15.4052 13.8491 15.3478 14.6538L16.8767 15.695C16.34 15.8022 15.8791 15.9377 15.4527 16.0863C14.7981 16.2723 14.1756 16.528 13.5815 16.8519C13.8188 14.3575 14.3601 11.6931 15.3524 10.5577ZM30.7797 37.6822C30.7659 37.7136 30.7606 37.7481 30.7491 37.7802L26.0665 30.6247H26.0642C26.0642 30.7227 26.0527 30.8169 26.0413 30.9103C26.0282 31.019 26.0068 31.1239 25.9792 31.2257C25.9769 31.2349 25.9746 31.2449 25.9724 31.254C25.9463 31.3475 25.9134 31.437 25.8766 31.5235C25.869 31.5412 25.8621 31.5588 25.8537 31.5756C25.8185 31.6529 25.7779 31.7264 25.735 31.7961C25.7197 31.8206 25.7044 31.8436 25.6883 31.8666C25.647 31.927 25.6033 31.9845 25.5566 32.0373C25.5314 32.0656 25.5046 32.0924 25.4778 32.1184C25.4349 32.1613 25.3905 32.2034 25.3438 32.2409C25.3055 32.2708 25.2657 32.2961 25.2251 32.3213C25.1838 32.3481 25.1432 32.3765 25.0988 32.3987C25.0444 32.4255 24.9878 32.4446 24.9311 32.4637C24.8959 32.476 24.8622 32.4921 24.8262 32.5005C24.7305 32.5235 24.6325 32.538 24.5322 32.538C24.4319 32.538 24.3347 32.5242 24.2397 32.5013C24.2068 32.4936 24.1762 32.479 24.144 32.4683C24.0843 32.4484 24.0246 32.4285 23.9679 32.4002C23.9304 32.3811 23.8952 32.3573 23.8585 32.3351C23.8118 32.306 23.7651 32.2769 23.7214 32.2417C23.6839 32.2118 23.6479 32.1789 23.6119 32.1445C23.5752 32.11 23.54 32.0733 23.5055 32.035C23.4695 31.9936 23.4351 31.9508 23.4021 31.9056C23.3746 31.8681 23.3493 31.8283 23.3241 31.7877C23.2919 31.7356 23.2605 31.682 23.2329 31.6254C23.2138 31.5871 23.1977 31.5465 23.1817 31.5067C23.1549 31.4432 23.1288 31.3788 23.1074 31.3115C23.0967 31.2763 23.0898 31.2387 23.0798 31.2028C23.0607 31.127 23.0408 31.0504 23.0285 30.9708C23.0124 30.859 23.0002 30.7449 23.0002 30.627L18.4103 37.8981H20.7049V36.4634L22.2361 35.5063V37.8981H23.7674V34.5485L24.533 34.07L25.2986 34.5355V37.8981H26.8299V35.4673L28.3611 36.3991V37.8981H30.7123C30.6802 38.0237 30.6572 38.1516 30.6572 38.2817L30.6587 39.8122H18.408V38.281C18.408 38.075 18.3666 37.8713 18.2862 37.6822L17.5068 35.8493L23.7696 26.7966H25.2986L31.5438 35.8845L30.7797 37.6822Z" fill="#FFCF00"/>
</svg>
