<svg width="41" height="41" viewBox="0 0 41 41" fill="none" xmlns="http://www.w3.org/2000/svg">
<path d="M32.4625 31.4212C31.9317 29.7879 30.4004 28.5833 28.5833 28.5833H26.5417V22.4583C26.5417 21.9168 26.3266 21.3975 25.9437 21.0147C25.5608 20.6318 25.0415 20.4167 24.5 20.4167H12.25V16.3333H16.3333C16.8748 16.3333 17.3941 16.1182 17.777 15.7353C18.1599 15.3525 18.375 14.8331 18.375 14.2917V10.2083H22.4583C23.5413 10.2083 24.5799 9.77813 25.3457 9.01235C26.1115 8.24658 26.5417 7.20797 26.5417 6.125V5.28792C32.5237 7.69708 36.75 13.5567 36.75 20.4167C36.75 24.6633 35.1167 28.5221 32.4625 31.4212ZM18.375 36.6071C10.3104 35.6067 4.08333 28.7467 4.08333 20.4167C4.08333 19.1508 4.24667 17.9258 4.51208 16.7621L14.2917 26.5417V28.5833C14.2917 29.6663 14.7219 30.7049 15.4876 31.4707C16.2534 32.2365 17.292 32.6667 18.375 32.6667M20.4167 0C17.7355 0 15.0806 0.528093 12.6035 1.55413C10.1265 2.58016 7.87577 4.08404 5.9799 5.9799C2.15104 9.80877 0 15.0018 0 20.4167C0 25.8315 2.15104 31.0246 5.9799 34.8534C7.87577 36.7493 10.1265 38.2532 12.6035 39.2792C15.0806 40.3052 17.7355 40.8333 20.4167 40.8333C25.8315 40.8333 31.0246 38.6823 34.8534 34.8534C38.6823 31.0246 40.8333 25.8315 40.8333 20.4167C40.8333 17.7355 40.3052 15.0806 39.2792 12.6035C38.2532 10.1265 36.7493 7.87577 34.8534 5.9799C32.9576 4.08404 30.7069 2.58016 28.2298 1.55413C25.7527 0.528093 23.0978 0 20.4167 0Z" fill="#FFCF00"/>
</svg>
