<svg width="49" height="49" viewBox="0 0 49 49" fill="none" xmlns="http://www.w3.org/2000/svg">
<path d="M10.2918 40.9163H5.69808C5.69808 40.9163 4.16683 40.9163 3.77891 38.1601L0.165163 3.77842L0.0834961 3.14551C0.0834961 1.45092 1.921 0.0830078 4.16683 0.0830078C6.41266 0.0830078 8.25016 1.45092 8.25016 3.14551C8.25016 1.45092 10.0877 0.0830078 12.3335 0.0830078C14.5793 0.0830078 16.4168 1.45092 16.4168 3.14551C16.4168 1.45092 18.2543 0.0830078 20.5002 0.0830078C22.7256 0.0830078 24.5835 1.43051 24.5835 3.14551C24.5835 1.45092 26.421 0.0830078 28.6668 0.0830078C30.9127 0.0830078 32.7502 1.45092 32.7502 3.14551C32.7502 1.45092 34.5877 0.0830078 36.8335 0.0830078C39.0793 0.0830078 40.9168 1.45092 40.9168 3.14551L40.8352 3.77842L37.2214 38.1601C36.8335 40.9163 35.3022 40.9163 35.3022 40.9163H30.7085H29.6877H24.0731H16.9272H11.3127H10.2918ZM32.4439 6.06509C31.8314 4.96259 30.3818 4.16634 28.6668 4.16634C27.0131 4.16634 25.3185 4.90134 24.5835 5.94259L24.1343 36.833H30.0143L32.4439 6.06509ZM16.4168 5.94259C15.6818 4.90134 13.9872 4.16634 12.3335 4.16634C10.6185 4.16634 9.16891 4.96259 8.55641 6.06509L10.986 36.833H16.866L16.4168 5.94259Z" fill="#FFCF00"/>
</svg>
