<svg width="50" height="50" viewBox="0 0 50 50" fill="none" xmlns="http://www.w3.org/2000/svg">
<path d="M25.026 5.46875C19.4166 5.46875 14.8697 10.0156 14.8697 15.625V16.4093L35.1822 16.4307V15.625C35.1822 10.0156 30.6354 5.46875 25.026 5.46875ZM25.0122 8.59375C26.313 8.59375 27.3697 9.65045 27.3697 10.9512C27.3697 12.252 26.313 13.3072 25.0122 13.3072C23.7115 13.3072 22.6548 12.252 22.6548 10.9512C22.6548 9.65045 23.7115 8.59375 25.0122 8.59375ZM10.1807 18.75C8.02367 18.75 6.27598 20.4977 6.27598 22.6547V24.2188H12.526V18.75H10.1807ZM37.526 18.75V24.2188H43.776V22.6547C43.776 20.4977 42.0268 18.75 39.8697 18.75H37.526ZM14.8697 18.7531V26.5625H12.526H11.7447H6.27598V37.5H12.526V28.9062H14.8697V37.5H16.0935C16.1177 37.593 16.1474 37.6848 16.1896 37.7747L18.2145 42.0715C18.473 42.6192 19.0227 42.9688 19.6274 42.9688H30.423C31.0277 42.9688 31.5789 42.6192 31.8375 42.0715L33.8623 37.7747C33.9045 37.6848 33.935 37.593 33.9585 37.5H35.1822V28.9062H37.526V37.5H43.776V26.5625H38.3072H37.526H35.1822V18.7744L14.8697 18.7531ZM19.5572 21.875H30.4947C31.3572 21.875 32.0572 22.575 32.0572 23.4375C32.0572 24.3 31.358 25 30.4947 25H19.5572C18.6947 25 17.9947 24.3 17.9947 23.4375C17.9947 22.575 18.6947 21.875 19.5572 21.875ZM23.4635 28.125H26.5885C27.4518 28.125 28.151 28.8242 28.151 29.6875V32.8125C28.151 33.6758 27.4518 34.375 26.5885 34.375H23.4635C22.601 34.375 21.901 33.6758 21.901 32.8125V29.6875C21.901 28.8242 22.601 28.125 23.4635 28.125ZM19.516 37.5H30.5375L29.4327 39.8438H20.6192L19.516 37.5ZM6.27598 39.8438C6.27598 39.8438 5.34072 42.0127 4.65244 43.6127C4.49229 43.983 4.52975 44.4089 4.75162 44.7464C4.9735 45.0831 5.351 45.2866 5.75413 45.2866H12.526V39.8438H6.27598ZM37.526 39.8438V45.3125H44.3436C44.742 45.3125 45.1143 45.115 45.3369 44.7845C45.5596 44.4541 45.6044 44.0356 45.456 43.6661C44.8067 42.0551 43.9164 39.8438 43.9164 39.8438H37.526Z" fill="#FFCF00"/>
</svg>
